<?xml version="1.0" encoding="UTF-8" standalone="no"?>
<!DOCTYPE svg PUBLIC "-//W3C//DTD SVG 1.1//EN" "http://www.w3.org/Graphics/SVG/1.1/DTD/svg11.dtd">
<svg xmlns="http://www.w3.org/2000/svg" version="1.1" viewBox="0.00 0.00 500.00 500.00">
<path fill="#ffffff" d="
  M 284.97 265.43
  Q 283.91 266.50 285.30 267.09
  C 289.91 269.02 295.20 270.78 299.15 272.87
  C 313.80 280.63 323.17 293.56 331.01 307.78
  C 338.10 320.61 344.66 333.74 352.11 346.36
  Q 356.79 354.27 362.77 361.24
  C 379.32 380.52 407.16 380.58 425.48 363.97
  C 437.38 353.18 447.20 342.23 458.37 331.62
  C 466.44 323.95 474.47 328.00 476.72 337.99
  C 481.74 360.28 470.81 374.12 455.99 389.10
  C 440.01 405.26 422.02 419.53 399.37 424.86
  Q 386.22 427.96 369.99 427.33
  C 353.25 426.68 335.03 420.77 322.75 409.25
  Q 307.97 395.38 298.05 377.67
  C 285.45 355.20 274.31 331.16 261.31 309.73
  C 252.88 295.83 243.83 287.74 227.50 284.48
  Q 224.87 283.95 224.43 286.48
  Q 223.84 289.89 223.24 293.28
  Q 217.80 324.01 212.53 354.76
  Q 209.42 372.87 206.27 385.51
  C 200.78 407.54 185.71 424.88 162.24 426.86
  C 153.73 427.58 142.85 427.57 134.32 425.93
  C 96.06 418.56 70.88 385.57 60.13 350.21
  Q 51.72 322.51 51.27 293.50
  C 50.67 253.83 56.48 213.03 70.26 175.71
  C 95.91 106.23 154.53 58.93 228.10 48.98
  C 237.42 47.72 247.91 47.71 257.84 47.42
  C 267.19 47.15 277.24 47.40 286.59 48.40
  C 320.73 52.07 357.04 66.41 375.18 96.81
  C 391.93 124.86 392.62 159.11 379.55 188.71
  Q 364.86 221.98 334.04 242.30
  C 318.67 252.43 303.90 258.23 286.72 264.33
  C 286.17 264.52 285.29 265.10 284.97 265.43
  Z
  M 162.53 293.65
  Q 163.18 289.97 163.57 285.63
  A 1.16 1.15 -87.5 0 0 162.42 284.37
  C 145.07 284.42 133.59 271.05 138.73 253.98
  C 142.92 240.06 155.60 238.64 168.87 238.86
  C 171.27 238.90 171.66 238.14 171.99 236.00
  Q 174.11 222.28 181.58 181.01
  Q 183.29 171.57 185.54 162.25
  C 188.28 150.88 192.63 142.44 203.65 137.45
  Q 217.86 131.02 232.96 135.22
  C 244.88 138.54 247.80 147.43 246.97 159.00
  Q 246.59 164.21 243.84 179.97
  Q 239.10 207.12 234.21 234.24
  Q 233.92 235.85 234.14 237.50
  Q 234.20 238.02 234.70 238.17
  Q 236.42 238.68 238.26 238.48
  C 265.84 235.43 290.27 224.60 307.51 202.24
  C 319.93 186.13 323.71 168.14 322.09 148.13
  C 319.48 115.97 293.25 98.30 263.25 95.52
  C 247.13 94.03 232.84 93.87 218.00 96.80
  C 136.39 112.93 102.49 188.43 99.46 264.13
  Q 98.47 288.96 99.35 306.37
  Q 100.41 327.42 108.85 348.80
  C 112.63 358.37 125.11 381.32 138.46 377.15
  C 146.26 374.72 149.19 364.47 150.59 357.39
  Q 156.88 325.58 162.53 293.65
  Z"
/>
</svg>
